<?xml version="1.0" encoding="UTF-8" standalone="no"?>
<!-- Created with Inkscape (http://www.inkscape.org/) -->

<svg
   xmlns:dc="http://purl.org/dc/elements/1.1/"
   xmlns:cc="http://creativecommons.org/ns#"
   xmlns:rdf="http://www.w3.org/1999/02/22-rdf-syntax-ns#"
   xmlns:svg="http://www.w3.org/2000/svg"
   xmlns="http://www.w3.org/2000/svg"
   xmlns:sodipodi="http://sodipodi.sourceforge.net/DTD/sodipodi-0.dtd"
   xmlns:inkscape="http://www.inkscape.org/namespaces/inkscape"
   width="14.837982mm"
   height="12.679892mm"
   viewBox="0 0 14.837982 12.679892"
   version="1.1"
   id="svg13444"
   inkscape:version="0.92.5 (2060ec1f9f, 2020-04-08)"
   sodipodi:docname="audio.svg">
  <defs
     id="defs13438" />
  <sodipodi:namedview
     id="base"
     pagecolor="#ffffff"
     bordercolor="#666666"
     borderopacity="1.0"
     inkscape:pageopacity="0.0"
     inkscape:pageshadow="2"
     inkscape:zoom="5.6"
     inkscape:cx="-29.857331"
     inkscape:cy="-2.3532162"
     inkscape:document-units="mm"
     inkscape:current-layer="layer1"
     showgrid="false"
     fit-margin-top="0"
     fit-margin-left="0"
     fit-margin-right="0"
     fit-margin-bottom="0"
     inkscape:window-width="1920"
     inkscape:window-height="1016"
     inkscape:window-x="0"
     inkscape:window-y="27"
     inkscape:window-maximized="1" />
  <metadata
     id="metadata13441">
    <rdf:RDF>
      <cc:Work
         rdf:about="">
        <dc:format>image/svg+xml</dc:format>
        <dc:type
           rdf:resource="http://purl.org/dc/dcmitype/StillImage" />
        <dc:title />
      </cc:Work>
    </rdf:RDF>
  </metadata>
  <g
     inkscape:label="Calque 1"
     inkscape:groupmode="layer"
     id="layer1"
     transform="translate(-34.914342,-72.189821)">
    <g
       transform="matrix(0.26458333,0,0,0.26458333,-98.858119,-15.831232)"
       id="g1203">
      <path
         style="fill:#ffffff"
         d="m 552.372,347.886 c -0.061,-0.158 -0.122,-0.314 -0.186,-0.471 l -0.014,-0.029 c -0.096,-0.218 -0.221,-0.499 -0.36,-0.781 -0.491,-1.006 -1.036,-1.945 -1.618,-2.789 -0.112,-0.164 -0.247,-0.357 -0.391,-0.553 -0.006,-0.008 -0.035,-0.047 -0.07,-0.093 -0.044,-0.058 -0.1,-0.131 -0.117,-0.156 l -0.024,-0.034 c -0.214,-0.269 -0.381,-0.473 -0.543,-0.66 -0.479,-0.556 -0.933,-1.037 -1.387,-1.476 -0.579,-0.557 -1.119,-1.029 -1.65,-1.446 l -0.027,-0.021 -0.021,-0.019 -0.178,-0.129 c -0.113,-0.084 -0.229,-0.168 -0.345,-0.249 -0.245,-0.172 -0.539,-0.375 -0.84,-0.564 -0.672,-0.427 -1.3,-0.785 -1.919,-1.094 -0.358,-0.18 -0.652,-0.319 -0.925,-0.439 -0.018,-0.008 -0.323,-0.136 -0.323,-0.136 l -0.076,-0.03 c -0.087,-0.035 -0.175,-0.071 -0.263,-0.104 -1.408,-0.531 -2.818,-0.911 -4.189,-1.132 -0.026,-0.004 -0.102,-0.015 -0.188,-0.026 -0.114,-0.016 -0.249,-0.034 -0.285,-0.04 l -0.034,-0.006 c -0.134,-0.017 -0.267,-0.032 -0.401,-0.044 -0.29,-0.028 -0.677,-0.062 -1.07,-0.08 -0.407,-0.019 -0.838,-0.027 -1.28,-0.027 -0.134,0 -0.267,0 -0.4,0.002 -0.854,0.011 -1.615,0.058 -2.33,0.144 -0.057,0.006 -0.105,0.012 -0.14,0.016 -0.022,0.003 -0.046,0.007 -0.07,0.011 l -0.099,0.016 c -0.14,0.021 -0.279,0.043 -0.419,0.067 -0.396,0.069 -0.724,0.135 -1.032,0.205 -0.791,0.18 -1.502,0.378 -2.173,0.607 -0.266,0.09 -0.617,0.212 -0.972,0.353 l 0.009,-0.003 c -0.024,0.009 -0.077,0.03 -0.135,0.055 -0.062,0.024 -0.131,0.054 -0.159,0.064 l -0.048,0.018 -0.02,0.009 c -0.101,0.045 -0.202,0.089 -0.302,0.135 -1.329,0.611 -2.563,1.327 -3.669,2.129 l -0.083,0.061 c -0.087,0.066 -0.229,0.173 -0.271,0.202 l -0.04,0.027 -0.077,0.062 c -0.074,0.059 -0.148,0.117 -0.223,0.178 -0.229,0.189 -0.5,0.415 -0.77,0.66 -0.555,0.504 -1.027,0.968 -1.44,1.419 -0.236,0.258 -0.512,0.563 -0.779,0.888 l -0.019,0.022 c -0.101,0.124 -0.202,0.247 -0.3,0.372 -0.017,0.021 -0.032,0.04 -0.048,0.061 -0.012,0.017 -0.07,0.097 -0.07,0.097 -0.44,0.598 -0.812,1.149 -1.135,1.687 -0.413,0.687 -0.757,1.323 -1.049,1.945 l -0.031,0.065 c -0.062,0.134 -0.125,0.268 -0.185,0.403 l -0.136,0.32 c -0.096,0.242 -0.208,0.528 -0.311,0.822 -0.246,0.703 -0.457,1.41 -0.626,2.104 l 1.218,0.512 c 0.774,-1.249 1.676,-2.41 2.679,-3.452 3.831,-3.981 9.147,-6.38 14.585,-6.581 0.295,-0.011 0.594,-0.016 0.887,-0.016 5.319,0 10.188,1.72 14.076,4.973 1.731,1.448 3.22,3.166 4.426,5.105 l 1.219,-0.509 c -0.085,-0.358 -0.172,-0.683 -0.263,-0.989 -0.183,-0.615 -0.362,-1.15 -0.551,-1.638 z"
         id="path1189"
         inkscape:connector-curvature="0" />
      <path
         style="fill:#0C506B;"
         d="m 556.173,352.763 c -0.639,-5.759 -3.504,-11.152 -7.862,-14.798 -4.135,-3.459 -9.262,-5.287 -14.826,-5.287 -0.303,0 -0.61,0.006 -0.914,0.017 -5.743,0.213 -11.343,2.73 -15.361,6.907 -3.624,3.766 -5.826,8.8 -6.199,14.176 -0.134,1.915 -0.103,3.893 -0.072,5.814 0.014,0.828 0.027,1.685 0.027,2.536 0,0.512 0.216,0.902 0.626,1.127 l 0.263,0.145 -0.002,0.299 c -0.008,1.02 0.009,2.056 0.024,3.059 v 0.038 c 0.014,0.816 0.026,1.661 0.026,2.488 0,0.255 0.163,0.406 0.437,0.406 0.274,0 0.437,-0.151 0.437,-0.406 v -4.478 c 0,-0.27 -0.002,-0.539 -0.004,-0.809 l -0.003,-0.582 0.276,-0.141 c 0.437,-0.221 0.667,-0.617 0.667,-1.146 v -5.99 l 0.024,-0.075 c 1.343,-4.201 4.034,-7.93 7.575,-10.498 3.508,-2.54 7.902,-3.94 12.375,-3.94 1.151,0 2.309,0.092 3.442,0.274 5.531,0.889 10.539,4.058 13.737,8.695 1.151,1.667 2.049,3.509 2.668,5.473 l 0.023,0.074 c -10e-4,0.366 -0.014,4.507 -0.019,6.161 -10e-4,0.528 0.238,0.938 0.675,1.152 l 0.28,0.139 -0.017,5.867 c -10e-4,0.121 0.031,0.213 0.099,0.281 0.076,0.076 0.201,0.121 0.334,0.121 0.271,0 0.438,-0.155 0.439,-0.406 l 0.013,-4.445 c 10e-4,-0.294 0.003,-0.589 0.005,-0.884 l 0.005,-0.548 0.264,-0.141 c 0.425,-0.225 0.649,-0.619 0.651,-1.14 0.004,-1.468 0.009,-2.937 0.014,-4.408 v -0.037 c 0,-0.256 0.002,-0.511 0.004,-0.767 l 10e-4,-0.085 c 0.011,-1.396 0.022,-2.84 -0.132,-4.238 z m -30.094,-15.934 c 0.35,-0.138 0.695,-0.258 0.957,-0.347 0.665,-0.228 1.371,-0.425 2.156,-0.603 0.306,-0.07 0.631,-0.135 1.024,-0.203 0.138,-0.025 0.276,-0.047 0.415,-0.068 l 0.102,-0.016 c 0.021,-0.003 0.041,-0.006 0.064,-0.009 0.032,-0.004 0.079,-0.01 0.137,-0.016 0.71,-0.085 1.466,-0.132 2.312,-0.142 0.572,-0.008 1.145,10e-4 1.671,0.024 0.392,0.019 0.773,0.052 1.063,0.079 0.133,0.012 0.264,0.027 0.389,0.043 l 0.034,0.006 c 0.035,0.006 0.158,0.022 0.27,0.038 l 0.022,0.003 c 0.085,0.012 0.158,0.021 0.183,0.025 1.359,0.219 2.758,0.596 4.156,1.123 0.087,0.032 0.174,0.067 0.26,0.102 l 0.074,0.029 c 0,0 0.3,0.127 0.32,0.135 0.27,0.119 0.561,0.258 0.918,0.437 0.613,0.307 1.235,0.661 1.903,1.085 0.297,0.188 0.588,0.389 0.835,0.562 0.114,0.079 0.228,0.163 0.342,0.247 l 0.221,0.165 c 0.528,0.413 1.063,0.883 1.638,1.435 0.451,0.436 0.901,0.914 1.377,1.464 0.16,0.187 0.325,0.389 0.533,0.649 l 0.024,0.034 c 0.015,0.021 0.058,0.078 0.098,0.131 l 0.022,0.029 c 0.034,0.044 0.062,0.082 0.068,0.091 0.144,0.194 0.276,0.386 0.389,0.549 0.576,0.837 1.116,1.768 1.605,2.767 0.137,0.279 0.263,0.561 0.356,0.774 l 0.012,0.026 c 0.063,0.154 0.124,0.311 0.185,0.468 0.188,0.484 0.365,1.016 0.546,1.621 0.078,0.265 0.153,0.541 0.227,0.843 l -0.956,0.399 c -1.201,-1.905 -2.676,-3.596 -4.385,-5.024 -3.92,-3.279 -8.824,-5.013 -14.184,-5.013 -0.296,0 -0.597,0.006 -0.894,0.017 -5.48,0.202 -10.838,2.62 -14.698,6.632 -0.979,1.017 -1.861,2.146 -2.625,3.358 l -0.955,-0.401 c 0.162,-0.643 0.359,-1.298 0.587,-1.948 0.102,-0.29 0.213,-0.575 0.308,-0.812 l 0.135,-0.319 c 0.059,-0.133 0.12,-0.265 0.184,-0.398 l 0.03,-0.066 c 0.29,-0.616 0.63,-1.248 1.041,-1.93 0.32,-0.532 0.688,-1.08 1.126,-1.674 0,0 0.057,-0.078 0.07,-0.096 0.014,-0.019 0.028,-0.037 0.044,-0.057 0.098,-0.124 0.198,-0.246 0.299,-0.37 l 0.018,-0.021 c 0.267,-0.323 0.54,-0.628 0.772,-0.883 0.411,-0.446 0.879,-0.907 1.432,-1.408 0.268,-0.243 0.536,-0.467 0.763,-0.654 0.071,-0.059 0.144,-0.115 0.22,-0.176 l 0.109,-0.082 c 0.038,-0.027 0.156,-0.115 0.244,-0.182 l 0.112,-0.084 c 1.097,-0.795 2.322,-1.505 3.642,-2.111 0.099,-0.046 0.199,-0.09 0.299,-0.134 l 0.059,-0.023 c 0.024,-0.009 0.078,-0.031 0.132,-0.054 l 0.032,-0.013 c 0.057,-0.023 0.108,-0.043 0.131,-0.053 z"
         id="headset_top"
         inkscape:connector-curvature="0" />
      <path
         style="fill:#ffffff"
         d="m 559.754,364.019 c -1.103,-2.838 -3.148,-4.925 -5.472,-5.582 -0.643,-0.182 -1.312,-0.281 -1.889,-0.281 -0.601,0 -1.112,0.105 -1.52,0.312 -1.027,0.521 -1.354,1.435 -1.524,2.172 -0.289,1.254 -0.273,2.582 -0.262,3.649 0.008,0.671 0.024,1.352 0.04,2.009 0.021,0.844 0.042,1.717 0.044,2.572 -0.001,0.766 -0.026,1.553 -0.05,2.313 -0.046,1.425 -0.092,2.897 0.009,4.352 0.055,0.782 0.15,1.671 0.45,2.324 0.346,0.756 0.778,1.223 1.321,1.428 0.509,0.192 1.062,0.29 1.645,0.29 1.211,0 2.548,-0.438 3.669,-1.199 1.643,-1.118 2.945,-2.897 3.667,-5.011 1.057,-3.096 1.012,-6.415 -0.128,-9.348 z"
         id="path1193"
         inkscape:connector-curvature="0" />
      <path
         style="fill:#ffffff"
         d="m 518.102,368.867 c 10e-4,-0.862 0.022,-1.745 0.044,-2.599 0.016,-0.648 0.032,-1.318 0.04,-1.979 0.012,-1.068 0.026,-2.397 -0.263,-3.65 -0.17,-0.737 -0.498,-1.65 -1.523,-2.172 -0.408,-0.206 -0.919,-0.312 -1.521,-0.312 -0.575,0 -1.246,0.1 -1.888,0.281 -2.324,0.657 -4.369,2.744 -5.473,5.582 -1.141,2.935 -1.186,6.254 -0.128,9.348 0.721,2.113 2.022,3.893 3.666,5.011 1.122,0.763 2.459,1.199 3.67,1.199 0.582,0 1.135,-0.098 1.645,-0.289 0.543,-0.206 0.975,-0.673 1.321,-1.429 0.299,-0.651 0.395,-1.54 0.449,-2.324 0.102,-1.454 0.055,-2.927 0.01,-4.352 -0.023,-0.76 -0.048,-1.547 -0.049,-2.315 z"
         id="path1195"
         inkscape:connector-curvature="0" />
      <g
         id="g1201">
        <path
           style="fill:#0C506B"
           d="m 552.482,357.137 -0.064,-10e-4 c -1.131,0 -2.092,0.326 -2.858,0.972 l -0.338,0.299 -0.211,-0.327 c -0.229,-0.356 -0.561,-0.596 -0.934,-0.672 -0.077,-0.016 -0.155,-0.023 -0.232,-0.023 -0.715,0 -1.337,0.66 -1.448,1.536 -0.837,6.601 -0.837,13.296 0,19.898 0.11,0.875 0.733,1.534 1.448,1.534 0.078,0 0.156,-0.008 0.232,-0.023 0.373,-0.076 0.705,-0.314 0.936,-0.673 l 0.215,-0.333 0.293,0.268 c 0.015,0.014 0.029,0.028 0.04,0.038 l 0.014,0.015 c 0.683,0.62 1.664,0.942 2.917,0.957 h 0.09 c 6.151,0 9.063,-7.002 9.095,-11.734 0.036,-5.594 -3.468,-11.668 -9.195,-11.731 z m -3.187,9.155 v -0.023 c -0.017,-0.649 -0.032,-1.32 -0.04,-1.983 -0.012,-1.058 -0.026,-2.375 0.258,-3.608 0.162,-0.702 0.472,-1.57 1.437,-2.061 0.384,-0.195 0.87,-0.293 1.444,-0.293 0.561,0 1.215,0.098 1.843,0.274 2.273,0.643 4.278,2.691 5.362,5.481 1.125,2.896 1.17,6.176 0.126,9.232 -0.71,2.08 -1.99,3.83 -3.603,4.928 -1.094,0.743 -2.396,1.17 -3.575,1.17 -0.562,0 -1.096,-0.094 -1.585,-0.279 -0.5,-0.188 -0.902,-0.627 -1.229,-1.342 -0.287,-0.628 -0.381,-1.498 -0.435,-2.266 -0.101,-1.445 -0.054,-2.914 -0.009,-4.335 0.023,-0.762 0.049,-1.55 0.05,-2.318 -0.001,-0.86 -0.023,-1.732 -0.044,-2.577 z"
           id="headset_right"
           inkscape:connector-curvature="0" />
        <path
           style="fill:#0C506B;fill-opacity:1"
           d="m 519.429,357.384 c -0.078,0 -0.156,0.008 -0.232,0.023 -0.373,0.076 -0.705,0.315 -0.936,0.672 l -0.211,0.327 -0.342,-0.304 c -0.763,-0.641 -1.722,-0.967 -2.854,-0.967 l -0.064,0.001 c -5.727,0.063 -9.23,6.138 -9.193,11.729 0.032,4.732 2.944,11.733 9.096,11.734 v 0 h 0.09 c 1.252,-0.015 2.23,-0.334 2.911,-0.953 l 0.016,-0.015 c 0.016,-0.016 0.03,-0.03 0.048,-0.045 l 0.292,-0.261 0.212,0.329 c 0.23,0.358 0.562,0.597 0.935,0.673 0.077,0.016 0.155,0.023 0.233,0.023 0.715,0 1.337,-0.659 1.447,-1.534 0.838,-6.603 0.838,-13.298 0,-19.899 -0.111,-0.873 -0.733,-1.533 -1.448,-1.533 z m -1.445,13.804 c 0.045,1.42 0.091,2.889 -0.009,4.334 -0.054,0.769 -0.148,1.64 -0.436,2.266 -0.327,0.715 -0.729,1.153 -1.229,1.342 -0.49,0.186 -1.023,0.279 -1.585,0.279 -1.179,0 -2.481,-0.427 -3.576,-1.17 -1.612,-1.099 -2.893,-2.848 -3.602,-4.928 -1.045,-3.056 -1,-6.335 0.126,-9.232 1.084,-2.79 3.088,-4.839 5.361,-5.481 0.628,-0.177 1.282,-0.274 1.843,-0.274 0.575,0 1.061,0.098 1.444,0.293 0.965,0.49 1.274,1.358 1.437,2.061 0.285,1.232 0.271,2.55 0.258,3.61 -0.007,0.651 -0.023,1.312 -0.039,1.951 l -10e-4,0.04 c -0.021,0.85 -0.042,1.729 -0.044,2.59 0.004,0.769 0.028,1.557 0.052,2.319 z"
           id="headset_left"
           inkscape:connector-curvature="0" />
      </g>
    </g>
  </g>
</svg>
