<?xml version="1.0" encoding="UTF-8" standalone="no"?>
<!-- Created with Inkscape (http://www.inkscape.org/) -->

<svg
   xmlns:dc="http://purl.org/dc/elements/1.1/"
   xmlns:cc="http://creativecommons.org/ns#"
   xmlns:rdf="http://www.w3.org/1999/02/22-rdf-syntax-ns#"
   xmlns:svg="http://www.w3.org/2000/svg"
   xmlns="http://www.w3.org/2000/svg"
   xmlns:sodipodi="http://sodipodi.sourceforge.net/DTD/sodipodi-0.dtd"
   xmlns:inkscape="http://www.inkscape.org/namespaces/inkscape"
   width="100mm"
   height="60mm"
   viewBox="0 0 100 60"
   version="1.1"
   id="svg890"
   inkscape:version="0.92.5 (2060ec1f9f, 2020-04-08)"
   sodipodi:docname="cloud.svg">
  <defs
     id="defs884" />
  <sodipodi:namedview
     id="base"
     pagecolor="#ffffff"
     bordercolor="#666666"
     borderopacity="1.0"
     inkscape:pageopacity="0.0"
     inkscape:pageshadow="2"
     inkscape:zoom="1.979899"
     inkscape:cx="98.985171"
     inkscape:cy="66.865835"
     inkscape:document-units="mm"
     inkscape:current-layer="layer1"
     showgrid="false"
     inkscape:window-width="1920"
     inkscape:window-height="1016"
     inkscape:window-x="0"
     inkscape:window-y="27"
     inkscape:window-maximized="1"
     fit-margin-top="0"
     fit-margin-left="0"
     fit-margin-right="0"
     fit-margin-bottom="0" />
  <metadata
     id="metadata887">
    <rdf:RDF>
      <cc:Work
         rdf:about="">
        <dc:format>image/svg+xml</dc:format>
        <dc:type
           rdf:resource="http://purl.org/dc/dcmitype/StillImage" />
        <dc:title></dc:title>
      </cc:Work>
    </rdf:RDF>
  </metadata>
  <g
     inkscape:label="Calque 1"
     inkscape:groupmode="layer"
     id="layer1"
     transform="translate(-12.434791,-9.7781095)">
    <path
       inkscape:connector-curvature="0"
       id="path1499"
       d="M 27.918869,69.559031 C 22.037896,68.386609 16.990373,64.550814 14.316215,59.221877 c -1.45923,-2.907887 -1.895673,-4.930344 -1.881072,-8.71678 0.0099,-2.561984 0.05236,-3.012104 0.414936,-4.396956 0.222161,-0.848537 0.618189,-2.060002 0.880062,-2.69215 2.440887,-5.892136 7.662544,-10.231511 13.838932,-11.500622 0.664766,-0.136598 1.287576,-0.331535 1.384024,-0.433199 0.09645,-0.101664 0.401103,-0.809667 0.677013,-1.573351 3.227186,-8.932441 11.072488,-16.077827 20.231957,-18.426972 3.281113,-0.841512 4.584924,-0.979116 8.445059,-0.891288 3.759735,0.08554 4.830137,0.244987 8.033657,1.19668 3.221158,0.956935 7.392366,3.123738 9.990433,5.189699 1.226142,0.975019 3.700457,3.440611 4.686052,4.669538 l 0.550059,0.685857 1.452613,-0.27318 c 5.772752,-1.085621 11.024916,-0.444258 15.761739,1.924736 2.460801,1.230696 4.012881,2.341286 6.111021,4.37274 4.2768,4.140851 6.72275,9.145913 7.28028,14.897341 0.73464,7.578516 -1.8994,14.700649 -7.36621,19.917305 -3.58815,3.423967 -7.803892,5.559429 -12.601895,6.383423 -1.1989,0.2059 -5.238664,0.233498 -32.321505,0.22081 -24.84256,-0.0116 -31.151315,-0.05435 -31.964501,-0.216477 z m 58.945013,-5.971025 c 4.249332,-1.054409 7.645608,-2.787204 10.639794,-5.428473 2.976924,-2.626032 5.640434,-6.61386 6.647694,-9.952968 0.30866,-1.023217 0.3352,-1.358781 0.25628,-3.239865 -0.3272,-7.798334 -4.15616,-14.682211 -10.52734,-18.926552 -2.568876,-1.711325 -4.83216,-2.677643 -8.110084,-3.462626 l -1.479355,-0.35427 -1.297672,0.339959 c -0.713723,0.186978 -1.660076,0.399951 -2.103012,0.473273 -1.051019,0.173983 -1.987815,0.484987 -4.503489,1.495102 -1.752859,0.703822 -2.110488,0.80092 -2.340773,0.635523 -0.149501,-0.107378 -0.847149,-0.889488 -1.55033,-1.738019 -1.715319,-2.069893 -4.679469,-5.102343 -6.382275,-6.529337 -3.502056,-2.93481 -6.994454,-4.677124 -11.061035,-5.518208 -1.294256,-0.267689 -1.394653,-0.267532 -2.854166,0.0044 -7.858998,1.464547 -14.825763,6.110411 -19.216133,12.814488 -1.126544,1.720229 -2.398898,4.31552 -3.06326,6.248307 -0.277085,0.80611 -0.567772,1.509035 -0.64597,1.562056 -0.0782,0.053 -0.518306,0.140604 -0.978016,0.194634 -1.278491,0.15026 -3.668311,0.967251 -5.360369,1.832511 -5.168449,2.64296 -8.706611,7.388559 -9.885703,13.259307 -0.316525,1.575993 -0.315468,5.083915 0.002,6.757659 0.496073,2.615088 2.098372,6.326274 3.286722,7.612581 0.467489,0.506028 1.521016,1.006797 3.30126,1.569179 2.737716,0.864846 1.037986,0.826116 34.595129,0.788244 l 31.010133,-0.03499 1.619935,-0.401962 z"
       style="fill:#e7f3f8;stroke-width:0.15427925" />
    <path
       inkscape:connector-curvature="0"
       id="path1497"
       d="m 27.929202,69.016448 c -2.768959,-0.598934 -5.359265,-1.735005 -7.405404,-3.247894 -1.052729,-0.778378 -3.042387,-2.707183 -2.919429,-2.830142 0.03946,-0.03948 0.625688,0.12419 1.302735,0.363658 0.677048,0.239469 1.821114,0.564916 2.542369,0.723211 1.255784,0.275609 2.629191,0.287802 32.398645,0.287516 l 31.087274,-3.09e-4 1.565584,-0.346538 c 8.147794,-1.803498 14.583094,-7.17437 17.550264,-14.647397 0.69071,-1.739576 0.8218,-3.063406 0.56568,-5.71236 -0.56804,-5.875057 -2.78951,-10.555197 -7.020105,-14.789765 -2.929386,-2.932126 -5.598801,-4.59268 -9.421558,-5.860816 -0.93339,-0.309639 -1.79349,-0.615628 -1.911341,-0.679985 -0.36788,-0.200896 1.466824,-0.344672 3.046356,-0.238728 4.288219,0.287627 8.685542,1.777593 12.206878,4.136115 1.79246,1.200544 5.14993,4.643398 6.41543,6.578565 1.7854,2.730192 3.16512,6.298897 3.59813,9.306733 0.0947,0.657612 0.2521,1.720538 0.34982,2.36205 0.38964,2.557565 -0.83637,8.327652 -2.47296,11.638789 -3.18848,6.4509 -8.7045,10.857247 -15.98682,12.770692 l -1.542791,0.405373 -31.318693,0.03242 C 30.666896,69.2986 29.180853,69.287171 27.929202,69.016424 Z M 72.566401,23.082459 c -5.30073,-6.240469 -9.890874,-9.721896 -14.912402,-11.31042 -0.862857,-0.272959 -1.638257,-0.563342 -1.723111,-0.645296 -0.09932,-0.09592 0.835003,-0.122936 2.622748,-0.07582 2.249041,0.05927 3.143684,0.15276 4.705519,0.491733 5.234793,1.136134 9.903591,3.376549 13.555593,6.504918 1.479874,1.26769 4.343631,4.439693 4.159312,4.607009 -0.02746,0.02496 -0.589773,0.192313 -1.249583,0.371967 -0.65981,0.179658 -2.130931,0.708205 -3.269159,1.174559 -1.138229,0.466354 -2.103025,0.847913 -2.143999,0.847913 -0.04099,0 -0.826181,-0.884951 -1.744918,-1.96656 z"
       style="fill:#ddedf2;stroke-width:0.15427925" />
    <path
       style="fill:#fefefe;fill-opacity:1;stroke:none;stroke-width:1.01015258;stroke-linecap:round;stroke-linejoin:round;stroke-miterlimit:4;stroke-dasharray:none;stroke-opacity:1"
       d="m 42.063075,204.6255 c -7.941278,-0.42625 -9.440266,-0.71277 -16.852248,-3.22131 -6.3646,-2.15405 -9.008726,-3.65088 -11.414856,-6.4619 -2.176388,-2.54262 -6.6586568,-11.532 -8.756153,-17.56083 C 2.0660059,168.83383 1.655784,166.0056 1.6699036,154.14795 1.6819848,144.0021 1.771695,142.95345 3.0356548,138.18335 6.7965473,123.98998 13.350601,112.71116 23.322455,103.27197 32.976876,94.133261 47.470103,86.710079 59.235668,84.877849 c 2.229619,-0.347215 3.834206,-0.887838 4.344136,-1.46364 0.44473,-0.502182 1.560529,-2.99837 2.479556,-5.547086 2.312815,-6.41409 8.354229,-18.526647 11.958984,-23.976814 15.908291,-24.05235 41.676636,-41.443866 70.363286,-47.4894375 7.17225,-1.5115168 8.89415,-1.4531035 16.8865,0.5728534 12.47742,3.1628641 24.60719,9.3841161 35.89397,18.4097071 5.54606,4.434963 17.95004,16.926923 25.42237,25.602688 4.76957,5.537717 6.47843,7.197337 7.41089,7.197337 0.66656,0 4.68869,-1.342271 8.93807,-2.982824 8.72417,-3.368132 11.85371,-4.318538 21.77656,-6.613303 l 6.97935,-1.614048 5.64756,1.38738 c 12.126,2.978875 21.15102,6.881155 30.69449,13.271814 22.99312,15.397043 36.77112,39.102164 39.39317,67.776114 0.74047,8.09762 0.42709,12.40007 -1.26853,17.41575 -3.98396,11.7847 -14.75164,27.66007 -24.33915,35.88451 -12.14624,10.4194 -23.51212,16.26952 -40.13847,20.65964 l -6.77517,1.78896 -112.88455,-0.0762 c -62.086501,-0.0419 -116.066528,-0.247 -119.955615,-0.45575 z"
       id="path1506"
       inkscape:connector-curvature="0"
       transform="matrix(0.26458333,0,0,0.26458333,12.434791,9.7781095)" />
  </g>
</svg>
